<?xml version="1.0" standalone="no"?>
<!DOCTYPE svg PUBLIC "-//W3C//DTD SVG 20010904//EN"
 "http://www.w3.org/TR/2001/REC-SVG-20010904/DTD/svg10.dtd">
<svg version="1.0" xmlns="http://www.w3.org/2000/svg"
 width="469.000000pt" height="469.000000pt" viewBox="0 0 469.000000 469.000000"
 preserveAspectRatio="xMidYMid meet">
<metadata>
Created by potrace 1.11, written by Peter Selinger 2001-2013
</metadata>
<g transform="translate(0.000000,469.000000) scale(0.100000,-0.100000)"
fill="#000000" stroke="none">
<path d="M1192 3698 c-101 -251 -102 -255 -125 -308 -8 -19 -54 -132 -102
-250 -216 -534 -428 -1058 -440 -1085 -7 -16 -32 -77 -55 -135 -22 -58 -45
-114 -50 -125 -10 -21 -32 -77 -215 -530 -64 -159 -123 -303 -130 -320 -23
-57 -37 -90 -56 -138 l-19 -48 1408 4 c774 1 1421 6 1437 10 31 7 59 12 130
22 283 42 739 224 881 351 12 10 37 33 56 49 43 39 168 189 168 203 0 6 4 12
9 14 14 5 141 206 181 287 40 79 50 110 79 228 21 82 25 260 9 340 l-11 53 40
43 c91 99 193 277 243 427 59 174 76 383 43 520 -33 138 -123 280 -231 365
-122 96 -357 190 -527 210 -27 4 -51 8 -54 10 -3 1 -33 6 -66 10 -33 3 -87 10
-120 15 -33 4 -584 9 -1225 9 l-1165 1 -93 -232z m2383 -152 c61 -3 119 -8
131 -10 12 -2 45 -7 75 -11 76 -9 241 -51 302 -77 115 -48 163 -90 204 -178
51 -107 29 -276 -61 -465 -77 -162 -187 -282 -338 -369 -27 -16 -48 -31 -48
-34 0 -4 15 -18 34 -32 117 -87 149 -251 85 -438 -42 -121 -234 -404 -326
-478 -62 -51 -151 -101 -261 -147 -194 -82 -337 -119 -612 -163 -79 -12 -2202
-13 -2196 0 2 6 39 97 81 201 42 105 86 209 96 232 10 23 19 46 19 51 0 5 6
22 14 38 8 16 125 304 261 639 135 336 250 619 255 630 5 11 63 153 129 315
71 175 125 296 135 300 21 7 1885 4 2021 -4z"/>
<path d="M2135 2935 c-12 -10 -125 -282 -125 -300 0 -18 1021 -8 1140 11 65
10 103 36 132 89 44 80 48 98 31 134 -19 38 -80 60 -193 67 -145 11 -973 9
-985 -1z"/>
<path d="M1781 2077 c-15 -39 -82 -201 -91 -222 -19 -42 -40 -98 -40 -106 0
-10 1112 -6 1170 4 117 21 138 29 169 69 29 36 72 139 78 188 6 45 -7 57 -72
65 -28 4 -61 9 -75 12 -14 3 -274 7 -578 9 l-553 3 -8 -22z"/>
</g>
</svg>
