<?xml version="1.0" encoding="utf-8"?>
<!-- Generator: Adobe Illustrator 19.0.1, SVG Export Plug-In . SVG Version: 6.00 Build 0)  -->
<svg version="1.1" id="crucial" xmlns="http://www.w3.org/2000/svg" xmlns:xlink="http://www.w3.org/1999/xlink" x="0px" y="0px"
	 width="266px" height="56px" viewBox="0 0 266 56" enable-background="new 0 0 266 56" xml:space="preserve">
<g>
	<g>
		<polygon points="247.059,29.895 248.08,29.895 248.08,32.691 248.673,32.691 248.673,29.895 249.699,29.895 249.699,29.359 
			247.059,29.359 		"/>
		<polygon points="252.106,31.694 251.212,29.359 250.311,29.359 250.311,32.691 250.873,32.691 250.873,29.923 250.884,29.923 
			251.896,32.691 252.308,32.691 253.323,29.923 253.33,29.923 253.33,32.691 253.897,32.691 253.897,29.359 253.005,29.359 		"/>
		<polygon points="258.717,1.4 265.917,1.4 236.919,19.331 245.25,32.691 240.788,32.691 231.722,18.142 		"/>
		<polygon points="208.237,32.691 224.321,22.625 230.573,32.691 226.241,32.691 223.19,27.735 215.169,32.691 		"/>
		<path d="M33.917,12.135H23.761l-1.43,3.524h8.631c3.771,0.017,4.887-0.298,5.139-0.4c0.258-0.106,0.676-0.569,1.079-1.561
			C37.333,13.317,37.799,12.147,33.917,12.135z"/>
		<polygon points="57.052,21.463 66.265,18.851 65.367,12.687 		"/>
		<polygon points="221.143,17.458 214.727,7.095 206.977,26.246 		"/>
		<path d="M28.919,21.703h-9.034l-1.628,4.005h10.294c3.144,0.012,4.18-0.333,4.419-0.442c0.361-0.161,0.777-0.751,1.113-1.577
			c0.396-0.988,0.353-1.44,0.19-1.525C34.092,22.065,33.169,21.719,28.919,21.703z"/>
		<path d="M205.282,7.68 M223.606,5.167l4.861,7.705L247.059,1.4h-7.192l-9.944,6.157L225.779,1.4l-55.69,0.031l-0.392,0.847
			c-2.011-0.512-5.721-1.122-10.909-1.143h-0.41c-5.179,0-8.949,0.363-11.69,1.127l0.337-0.863H129.4l-7.071,17.393h-6.224
			L123.129,1.4h-17.621l-7.067,17.393h-6.232L99.233,1.4H81.615l-3.03,7.448L77.429,1.4H60.465l-7.866,8.226
			c-0.008-3.507-2.034-5.394-3.147-6.167c-2.217-1.53-5.778-2.054-11.601-2.079L14.271,1.4L0,36.561h28.229
			c5.092,0,9.051-1.46,11.99-2.805c0.995-0.459,1.264-0.669,1.947-1.079H56.46l7.128-4.395l0.821,4.395h69.884l1.045-2.381
			c0.319,0.239,0.608,0.421,0.823,0.541c2.306,1.281,6.106,1.837,12.697,1.856l0.569,0.001c6.538,0,10.874-0.497,13.646-1.563
			c3.649-1.406,6.484-4.393,8.199-8.631c1.09-2.688,1.132-4.77,0.711-6.347h4.198l-6.447,16.526h17.552l6.616-16.535h3.649
			l-6.689,16.546h5.287l6.587-4.066h-5.938l8.485-20.942l-4.998,4.669h-9.146l-6.5,16.272h-9.093l6.353-16.266l-20.64,0.006
			c0.21-0.785,0.101-1.115-0.058-1.2c-0.155-0.079-0.92-0.341-4.298-0.355c-3.808-0.016-5.239,0.25-5.744,0.414
			c-0.264,0.084-0.707,0.222-1.06,1.096c-0.348,0.855-0.306,1.232-0.193,1.273c0.193,0.082,1.273,0.351,7.021,0.568
			c5.361,0.204,8.499,0.682,9.883,1.502c1.578,0.939,1.816,2.795,0.714,5.515c-1.314,3.247-3.318,5.41-5.955,6.426
			c-2.328,0.897-6.506,1.325-12.775,1.297c-5.651-0.016-9.182-0.462-10.79-1.356c-1.83-1.016-2.161-3.005-0.984-5.912l0.086-0.355
			h8.894l0.09,0.007c-0.376,0.93-0.442,1.545-0.197,1.661c0.258,0.121,1.376,0.4,6.204,0.417c3.775,0.017,4.914-0.313,5.173-0.414
			c0.384-0.152,0.804-0.727,1.148-1.574c0.211-0.521,0.257-0.907,0.117-1.006c-0.082-0.056-0.627-0.348-3.175-0.452l-3.545-0.152
			c-5.672-0.224-8.966-0.718-10.348-1.553c-1.58-0.95-1.794-2.877-0.639-5.727c1.473-3.633,3.996-5.229,5.857-5.926
			c2.382-0.894,6.31-1.315,12.012-1.296c5.402,0.021,8.827,0.435,10.482,1.265c0.857,0.431,1.695,1.221,1.799,2.643l1.829-4.015
			L223.606,5.167z M67.705,28.622l-0.969-6.571l-13.075,6.584l-12.415-0.012c-0.845,0.718-1.619,1.276-2.761,1.801
			c-2.44,1.118-5.964,2.271-10.588,2.255H5.88l11.157-27.51l20.675-0.012c4.84,0.019,7.932,0.805,9.41,1.826
			c1.656,1.146,1.891,3.219,0.7,6.161c-0.695,1.715-2.059,3.722-4.742,5.092c2.323,1.433,2.068,3.855,1.235,5.92
			c-0.025,0.058-0.054,0.11-0.078,0.165L62.515,5.161h11.373l2.959,18.668l7.54-18.662h9.106l-7.084,17.491h14.764l7.111-17.498
			l9.093,0.012l-7.079,17.504h14.762l7.119-17.51h9.082l-9.479,23.454h-9.114l1.779-4.393l-5.979,4.425H98.774l1.815-4.526
			l-6.002,4.494H67.705z"/>
	</g>
	<g>
		<rect x="36.823" y="47.54" width="54.151" height="0.765"/>
		<rect x="171.99" y="47.54" width="57.104" height="0.765"/>
	</g>
	<g>
		<g>
			<path d="M97.415,44.898h1.172v2.638h0.019c0.324-0.43,0.734-0.685,1.347-0.685c1.383,0,1.89,1.103,1.89,2.347
				c0,1.233-0.507,2.372-1.89,2.372c-0.499,0-1.042-0.175-1.383-0.657h-0.019v0.551h-1.136V44.898z M99.63,50.66
				c0.771,0,0.989-0.84,0.989-1.461c0-0.607-0.211-1.438-0.973-1.438c-0.751,0-1.05,0.807-1.05,1.438
				C98.596,49.837,98.851,50.66,99.63,50.66z"/>
			<path d="M104.638,50.25h0.017l1.086-3.295h1.192l-1.691,4.476c-0.377,0.998-0.648,1.979-1.873,1.979
				c-0.283,0-0.563-0.042-0.831-0.122l0.078-0.868c0.15,0.053,0.316,0.08,0.604,0.08c0.474,0,0.762-0.324,0.762-0.807l-1.727-4.739
				h1.297L104.638,50.25z"/>
		</g>
		<path d="M136.695,51.558c-2.605,0-4.939-1.477-4.939-3.545c0-2.07,2.334-3.55,4.955-3.55c1.142,0,2.206,0.288,3.365,0.937
			l-0.815,1.047c-0.74-0.36-1.618-0.574-2.55-0.574c-1.1,0-2.372,0.615-2.372,2.14c0,1.521,1.253,2.14,2.372,2.14
			c0.931,0,1.824-0.188,2.586-0.518l0.818,1.106C139.148,51.259,137.967,51.558,136.695,51.558L136.695,51.558z"/>
		<path d="M151.566,51.533c2.62,0,4.957-1.48,4.957-3.547c0-2.067-2.336-3.547-4.957-3.547c-2.622,0-4.961,1.48-4.961,3.547
			C146.606,50.053,148.945,51.533,151.566,51.533L151.566,51.533z M153.94,47.986c0,1.524-1.272,2.14-2.374,2.14
			c-1.103,0-2.372-0.615-2.372-2.14c0-1.521,1.269-2.142,2.372-2.142C152.668,45.844,153.94,46.464,153.94,47.986L153.94,47.986z"/>
		<path d="M157.579,51.361h2.447v-4.224c0-0.568,0.443-1.242,1.239-1.244c0.551,0.003,1.084,0.382,1.084,0.865l-0.006,4.603h2.453
			v-4.736c0-1.244-1.336-2.286-2.932-2.286c-0.017,0-0.03,0-0.044,0.003c-0.017-0.003-0.031-0.003-0.047-0.003
			c-0.657,0-1.283,0.191-1.793,0.516c-0.006-0.019-0.144-0.474-2.4-0.474V51.361L157.579,51.361z"/>
		<polygon points="128.178,44.61 128.178,51.361 130.578,51.361 130.578,44.61 128.178,44.61 		"/>
		<path d="M141.257,51.361h2.403v-4.093c0-0.646,0.757-1.164,1.574-1.164c0.402,0,0.773,0.08,1.089,0.219l0,0v-1.774
			c-0.28-0.044-0.588-0.066-0.856-0.066c-0.643,0-1.289,0.186-1.815,0.499c-0.039-0.078-0.335-0.454-2.395-0.454V51.361
			L141.257,51.361z"/>
		<path d="M129.013,39.816c-0.909-1.303-3.739-0.776-7.405,1.161c-0.163,0.08-0.308,0.166-0.416,0.241
			c-0.177,0.122-0.072,0.211,0.055,0.163c0.133-0.047,0.288-0.108,0.46-0.191c2.749-1.303,4.892-1.538,5.731-0.629
			c1.275,1.386-1.341,5.928-5.867,9.287c-0.604,0.446-1.538,1.103-2.145,1.466c-0.042,0.028-0.08,0.053-0.122,0.078
			c-0.158,0.105-0.302,0.202-0.416,0.291c-0.108,0.086-0.089,0.222,0.108,0.136c0.122-0.05,0.269-0.13,0.424-0.224
			c0.036-0.022,0.069-0.042,0.108-0.064c0.682-0.413,1.696-1.114,2.389-1.596c0.593-0.419,1.156-0.84,1.688-1.264l-0.003,2.691
			h2.455v-4.911C128.766,43.66,129.885,41.063,129.013,39.816L129.013,39.816z"/>
		<path d="M114.002,54.865h2.455V52.32c0.673-0.396,1.352-0.831,2.02-1.289c0.15-0.103,0.283-0.205,0.38-0.294
			c0.161-0.144,0.044-0.219-0.08-0.155c-0.125,0.067-0.274,0.158-0.435,0.261c-3.797,2.425-6.358,3.165-7.303,1.882
			c-0.823-1.114,0.524-3.27,2.963-5.704v5.651c0.69-0.236,1.508-0.61,2.455-1.136v-5.244l0.54,1.15
			c0.59,1.269,1.668,2.029,3.032,2.029c1.369,0,2.442-0.759,3.035-2.029l0.54-1.15v1.339c0.879-0.854,1.627-1.704,2.198-2.527
			c0.069-0.103,0.064-0.186,0.025-0.28c-0.377-0.793-1.186-1.336-2.123-1.336c-0.926,0-1.729,0.538-2.115,1.316l-1.028,2.178
			c-0.108,0.213-0.302,0.33-0.532,0.33c-0.227,0-0.424-0.116-0.529-0.33l-1.028-2.178c-0.197-0.396-0.502-0.732-0.876-0.962
			c0.754-0.599,1.483-1.128,2.203-1.569c0.163-0.097,0.299-0.197,0.41-0.283c0.114-0.086,0.091-0.219-0.108-0.138
			c-0.119,0.053-0.277,0.127-0.432,0.224c-0.734,0.443-1.486,0.901-2.206,1.391c-0.086,0.058-0.172,0.119-0.261,0.177
			c-0.261-0.102-0.549-0.158-0.848-0.158c-1.303,0-2.353,1.053-2.353,2.353v0.324c-3.47,3.096-5.291,6.158-4.34,7.525
			c0.698,0.998,2.356,0.768,4.34-0.094V54.865L114.002,54.865z"/>
		<path d="M166.952,45.517h0.244c0.163,0,0.308-0.022,0.308-0.224c0-0.175-0.164-0.205-0.305-0.205h-0.247V45.517L166.952,45.517z
			 M166.675,44.876h0.551c0.363,0,0.554,0.125,0.554,0.438c0,0.258-0.144,0.382-0.391,0.405l0.402,0.654h-0.285l-0.385-0.646h-0.169
			v0.646h-0.277V44.876L166.675,44.876z M168.183,45.63c0-0.618-0.446-1.064-1.001-1.064c-0.552,0-0.998,0.446-0.998,1.064
			c0,0.615,0.446,1.064,0.998,1.064C167.736,46.694,168.183,46.245,168.183,45.63L168.183,45.63z M165.86,45.63
			c0-0.729,0.593-1.322,1.322-1.322c0.726,0,1.319,0.593,1.319,1.322c0,0.729-0.593,1.322-1.319,1.322
			C166.453,46.952,165.86,46.359,165.86,45.63L165.86,45.63z"/>
	</g>
</g>
</svg>
