<?xml version="1.0" encoding="utf-8"?>
<!-- Generator: Adobe Illustrator 19.0.1, SVG Export Plug-In . SVG Version: 6.00 Build 0)  -->
<svg version="1.1" id="Layer_1" xmlns="http://www.w3.org/2000/svg" xmlns:xlink="http://www.w3.org/1999/xlink" x="0px" y="0px"
	 width="173px" height="20px" viewBox="0 0 173 20" enable-background="new 0 0 173 20" xml:space="preserve" fill="#fff" stroke="rgb(255,255,255)">
<g>
	<path d="M169.319,0.249v12.813l-7.29-12.813h-4.061v19.502h3.681V6.506l7.561,13.245H173V0.249H169.319z M148.973,19.751h3.898
		V0.249h-3.898V19.751z M140.492,19.751l5.038-19.502h-3.901l-3.223,14.467l-3.224-14.467h-3.304l-3.224,14.467l-3.223-14.467
		h-4.063l5.011,19.502h4.307l2.844-12.893l2.844,12.893H140.492z M101.073,4.363c0-0.351,0.19-0.541,0.543-0.541h5.34
		c0.353,0,0.541,0.19,0.541,0.541v11.274c0,0.351-0.189,0.541-0.541,0.541h-5.34c-0.353,0-0.543-0.19-0.543-0.541V4.363z
		 M107.606,19.751c2.463,0,3.79-1.326,3.79-3.79V4.039c0-2.464-1.327-3.79-3.79-3.79h-6.64c-2.464,0-3.79,1.326-3.79,3.79v11.923
		c0,2.464,1.326,3.79,3.79,3.79H107.606z M94.328,3.767V0.249H80.244v3.518h5.093v15.984h3.898V3.767H94.328z M72.058,3.767V0.249
		H57.974v3.518h5.094v15.984h3.897V3.767H72.058z M46.299,0.249v19.502h12.078v-3.573h-8.181V0.249H46.299z M37.305,19.751h3.898
		V0.249h-3.898V19.751z M32.398,0.249h-3.898v15.388c0,0.351-0.19,0.541-0.541,0.541h-5.313c-0.353,0-0.543-0.19-0.543-0.541V0.249
		h-3.897v15.712c0,2.464,1.326,3.79,3.79,3.79h6.613c2.463,0,3.79-1.326,3.79-3.79V0.249z M3.898,16.233v-4.771h5.583
		c0.353,0,0.543,0.19,0.543,0.541v3.687c0,0.353-0.19,0.543-0.543,0.543H3.898z M3.898,8.106V3.767h5.367
		c0.351,0,0.541,0.19,0.541,0.543v3.253c0,0.353-0.19,0.543-0.541,0.543H3.898z M0,0.249v19.502h10.133
		c2.463,0,3.788-1.326,3.788-3.79v-3.253c0-1.166-0.569-2.276-1.921-2.926c1.244-0.73,1.706-1.759,1.706-2.924v-2.82
		c0-2.464-1.327-3.79-3.79-3.79H0z"/>
</g>
</svg>
