<?xml version="1.0" encoding="utf-8"?>
<!-- Generator: Adobe Illustrator 19.0.1, SVG Export Plug-In . SVG Version: 6.00 Build 0)  -->
<svg version="1.1" id="Слой_1" xmlns="http://www.w3.org/2000/svg" xmlns:xlink="http://www.w3.org/1999/xlink" x="0px" y="0px"
	 width="50px" height="50px" viewBox="0 0 50 50" enable-background="new 0 0 50 50" xml:space="preserve">
<linearGradient id="SVGID_1_" gradientUnits="userSpaceOnUse" x1="16.384" y1="47.9052" x2="33.0026" y2="2.2459">
	<stop  offset="0" style="stop-color:#D99E29"/>
	<stop  offset="1" style="stop-color:#EEC061"/>
</linearGradient>
<path fill="url(#SVGID_1_)" d="M36.334,3.943c-0.248,0.007-0.509,0.024-0.761,0.052c-1.006,0.114-2.047,0.39-3.043,0.761
	c-1.993,0.742-3.831,1.863-5.011,3.043c-1.276,1.276-1.901,2.832-1.889,4.434c0.01,1.385,0.527,2.78,1.286,4.119L25,18.294
	c-0.361,0.291-0.418,0.82-0.127,1.181c0.291,0.361,0.82,0.418,1.181,0.127c0.047-0.038,0.089-0.08,0.127-0.127l2.361-2.361
	c0.278-0.281,0.321-0.719,0.105-1.049c-0.86-1.328-1.329-2.641-1.338-3.83s0.4-2.263,1.391-3.253
	c0.919-0.919,2.649-1.986,4.434-2.65c1.121-0.417,2.191-0.574,3.175-0.603l-3.175,3.148c-0.009,0.017-0.018,0.035-0.026,0.052
	c-0.862,0.985-0.901,2.484,0.026,3.411l4.46,4.46c0.009,0.009,0.017,0.018,0.026,0.026c0.985,0.862,2.484,0.901,3.411-0.026
	l3.175-3.175c-0.026,1-0.184,2.079-0.603,3.201c-0.664,1.773-1.727,3.485-2.65,4.408c-0.99,0.99-2.045,1.356-3.227,1.338
	S35.2,22.09,33.817,21.26c-0.331-0.196-0.752-0.142-1.023,0.131l-1.338,1.338c-0.333,0.326-0.339,0.86-0.013,1.194
	s0.86,0.339,1.194,0.013l0.944-0.944c1.364,0.732,2.736,1.238,4.119,1.259c1.588,0.024,3.158-0.56,4.434-1.837
	c1.176-1.176,2.301-3.001,3.043-4.985c0.743-1.984,1.132-4.135,0.525-5.956c-0.152-0.438-0.63-0.67-1.069-0.518
	c-0.123,0.042-0.233,0.112-0.323,0.203l-4.46,4.434c-0.237,0.237-0.721,0.27-1.076,0c-0.017-0.013-0.036-0.012-0.052-0.026
	l-4.408-4.408c-0.248-0.248-0.261-0.77,0.052-1.128l4.408-4.408c0.33-0.326,0.333-0.858,0.007-1.187
	c-0.09-0.091-0.201-0.161-0.322-0.203C37.787,4.002,37.077,3.922,36.334,3.943z M6.818,4.022C6.639,4.048,6.474,4.131,6.346,4.258
	L4.247,6.357C3.974,6.628,3.92,7.049,4.116,7.38l3.542,6.139c0.175,0.288,0.506,0.443,0.84,0.394l1.837-0.289L21.72,25.011
	l-0.42,0.42c-0.927,0.927-0.927,2.431,0,3.358l0.577,0.603c0.668,0.668,1.59,0.667,2.414,0.394l1.417,1.391
	c-0.094,1.131,0.236,2.256,1.049,3.07L36.99,44.504c2.074,2.074,5.429,2.074,7.504,0c0-0.009,0-0.017,0-0.026
	c1.991-2.091,2.016-5.462,0-7.477L34.235,26.769c-0.847-0.847-1.972-1.109-3.07-1.049l-1.391-1.417
	c0.274-0.824,0.274-1.746-0.394-2.414l-0.603-0.577c-0.463-0.463-1.068-0.708-1.679-0.708s-1.216,0.245-1.679,0.708L25,21.731
	L13.613,10.345l0.289-1.837c0.049-0.333-0.106-0.664-0.394-0.84L7.369,4.126C7.225,4.045,7.061,4.009,6.897,4.021
	C6.871,4.021,6.844,4.021,6.818,4.022z M7.107,5.911l5.063,2.912l-0.262,1.705c-0.036,0.26,0.051,0.522,0.236,0.708l11.675,11.675
	l-0.918,0.918L11.226,12.155c-0.186-0.185-0.448-0.273-0.708-0.236l-1.705,0.262L5.9,7.118L7.107,5.911z M27.099,22.309
	c0.187,0,0.374,0.059,0.498,0.184l0.577,0.603c0.277,0.277,0.273,0.687,0.052,0.944c-0.292,0.338-0.269,0.845,0.052,1.154
	l1.915,1.915c0.192,0.193,0.466,0.281,0.735,0.236c0.776-0.129,1.589,0.068,2.125,0.603l10.232,10.258
	c1.337,1.337,1.351,3.653,0,5.09c-1.452,1.452-3.638,1.452-5.09,0L27.938,33.065c-0.558-0.558-0.778-1.348-0.603-2.046
	c0.074-0.294-0.016-0.605-0.236-0.813l-1.915-1.915c-0.31-0.322-0.817-0.345-1.154-0.052c-0.258,0.221-0.668,0.224-0.944-0.052
	l-0.603-0.577c-0.248-0.248-0.248-0.749,0-0.997l4.119-4.119C26.724,22.368,26.912,22.309,27.099,22.309z M18.861,24.827
	c-0.191,0.027-0.367,0.12-0.498,0.262l-3.988,3.988c-0.57-0.11-1.132-0.21-1.705-0.21c-4.732,0-8.579,3.848-8.579,8.579
	s3.848,8.553,8.579,8.553s8.553-3.821,8.553-8.553c0-0.613-0.138-1.218-0.289-1.81l2.886-2.886c0.333-0.326,0.339-0.86,0.013-1.194
	c-0.326-0.333-0.86-0.339-1.194-0.013l-3.175,3.201c-0.24,0.23-0.323,0.579-0.21,0.892c0.209,0.557,0.289,1.117,0.289,1.81
	c0,3.832-3.042,6.874-6.874,6.874s-6.9-3.042-6.9-6.874s3.068-6.9,6.9-6.9c0.602,0,1.203,0.084,1.81,0.236
	c0.286,0.064,0.584-0.026,0.787-0.236l4.276-4.276c0.333-0.322,0.342-0.854,0.02-1.187c-0.163-0.169-0.389-0.261-0.623-0.256
	C18.913,24.826,18.887,24.826,18.861,24.827z M30.641,29.445l-1.207,1.207l10.075,10.075l1.207-1.207L30.641,29.445z M13.561,32.567
	c-0.044,0.005-0.088,0.014-0.131,0.026l-3.935,1.102c-0.279,0.08-0.498,0.298-0.577,0.577l-1.102,3.935
	c-0.091,0.297-0.01,0.62,0.21,0.84l2.938,2.938c0.214,0.21,0.524,0.29,0.813,0.21l4.04-1.102c0.296-0.076,0.527-0.307,0.603-0.603
	l0.997-3.935c0.08-0.289,0-0.599-0.21-0.813l-2.938-2.938C14.083,32.618,13.821,32.53,13.561,32.567z M13.404,34.351l2.256,2.256
	l-0.761,3.017l-3.07,0.813l-2.256-2.256l0.813-3.017L13.404,34.351z"/>
</svg>
