<?xml version="1.0" encoding="utf-8"?>
<!-- Generator: Adobe Illustrator 19.0.1, SVG Export Plug-In . SVG Version: 6.00 Build 0)  -->
<svg version="1.1" id="Слой_1" xmlns="http://www.w3.org/2000/svg" xmlns:xlink="http://www.w3.org/1999/xlink" x="0px" y="0px"
	 width="50px" height="50px" viewBox="0 0 50 50" enable-background="new 0 0 50 50" xml:space="preserve">
<linearGradient id="SVGID_1_" gradientUnits="userSpaceOnUse" x1="18.083" y1="47.7114" x2="33.6219" y2="5.0187">
	<stop  offset="0" style="stop-color:#D99E29"/>
	<stop  offset="1" style="stop-color:#EEC061"/>
</linearGradient>
<path fill="url(#SVGID_1_)" d="M24.963,3.485c-0.042,0.008-0.084,0.018-0.125,0.031c-0.01,0-0.021,0-0.031,0
	c-4.358,0.043-8.447,1.216-12,3.219c-0.179,0.048-0.342,0.146-0.469,0.281c-3.612,2.141-6.637,5.14-8.781,8.75
	c-0.146,0.144-0.244,0.33-0.281,0.531c-1.956,3.479-3.135,7.464-3.219,11.719c-0.168,0.315-0.156,0.696,0.031,1
	c0.086,4.305,1.25,8.338,3.25,11.844C3.383,41,3.458,41.128,3.557,41.235c0.232,0.39,0.467,0.78,0.719,1.156
	c0.245,0.495,0.845,0.698,1.34,0.453s0.698-0.845,0.453-1.34c-0.037-0.074-0.083-0.144-0.136-0.207
	c-0.093-0.139-0.16-0.297-0.25-0.438l1.688-0.969c0.509-0.215,0.747-0.802,0.532-1.31c-0.181-0.429-0.635-0.677-1.095-0.596
	c-0.032,0.009-0.063,0.019-0.094,0.031c-0.121,0.02-0.238,0.063-0.344,0.125l-1.719,1c-1.511-2.896-2.413-6.164-2.563-9.625h1.969
	c0.552,0.008,1.006-0.434,1.014-0.986s-0.434-1.006-0.986-1.014c-0.009,0-0.019,0-0.028,0H2.088
	c0.147-3.467,1.051-6.724,2.563-9.625l1.719,1C6.853,19.168,7.468,19,7.744,18.516c0.276-0.483,0.108-1.099-0.375-1.375l-1.719-1
	c1.803-2.827,4.204-5.228,7.031-7.031l1,1.719c0.276,0.483,0.892,0.651,1.375,0.375s0.651-0.892,0.375-1.375l-1-1.719
	c2.901-1.511,6.158-2.415,9.625-2.563v1.969c-0.008,0.552,0.434,1.006,0.986,1.014c0.552,0.008,1.006-0.434,1.014-0.986
	c0-0.009,0-0.019,0-0.028V5.548c3.464,0.147,6.727,1.053,9.625,2.563l-1,1.719c-0.276,0.483-0.108,1.099,0.375,1.375
	s1.099,0.108,1.375-0.375l1-1.719c2.822,1.804,5.232,4.206,7.031,7.031l-1.719,1c-0.483,0.276-0.651,0.892-0.375,1.375
	s0.892,0.651,1.375,0.375l1.719-1c1.507,2.898,2.415,6.162,2.563,9.625h-1.969c-0.031-0.001-0.063-0.001-0.094,0
	c-0.552,0.026-0.979,0.495-0.953,1.047s0.495,0.979,1.047,0.953h1.969c-0.149,3.462-1.053,6.726-2.563,9.625l-1.719-1
	c-0.207-0.123-0.451-0.167-0.688-0.125c-0.546,0.083-0.921,0.593-0.838,1.139c0.048,0.315,0.243,0.588,0.525,0.736l1.688,0.969
	c-0.09,0.141-0.157,0.299-0.25,0.438c-0.311,0.457-0.192,1.08,0.266,1.391s1.08,0.192,1.391-0.266
	c0.257-0.385,0.482-0.788,0.719-1.188c0.092-0.089,0.166-0.195,0.219-0.313c2.057-3.603,3.248-7.785,3.281-12.219
	c0.006-0.062,0.006-0.125,0-0.188c0-0.042,0-0.083,0-0.125c0.003-0.042,0.003-0.083,0-0.125c-0.042-4.277-1.159-8.305-3.094-11.813
	c-0.001-0.343-0.178-0.662-0.469-0.844c-2.131-3.53-5.112-6.484-8.656-8.594c-0.122-0.119-0.273-0.205-0.438-0.25
	c-3.582-2.037-7.72-3.212-12.125-3.25C25.174,3.49,25.068,3.479,24.963,3.485z M40.776,19.204l-13,5.125
	c-0.786-0.517-1.712-0.813-2.719-0.813c-2.751,0-5,2.252-5,5s2.249,5,5,5s5-2.252,5-5c0-0.011,0-0.021,0-0.031l10.938-8.906
	L40.776,19.204z M25.057,25.516c1.671,0,3,1.331,3,3c0,1.668-1.329,3-3,3s-3-1.332-3-3S23.386,25.516,25.057,25.516z M14.869,40.516
	c-0.478,0.091-0.821,0.513-0.813,1v4c0,0.552,0.448,1,1,1h20c0.552,0,1-0.448,1-1v-4c0-0.552-0.448-1-1-1h-20
	c-0.031-0.001-0.063-0.001-0.094,0C14.932,40.515,14.901,40.515,14.869,40.516z M16.057,42.516h18v2h-18V42.516z"/>
</svg>
