<?xml version="1.0" encoding="utf-8"?>
<!-- Generator: Adobe Illustrator 19.0.1, SVG Export Plug-In . SVG Version: 6.00 Build 0)  -->
<svg version="1.1" id="Слой_1" xmlns="http://www.w3.org/2000/svg" xmlns:xlink="http://www.w3.org/1999/xlink" x="0px" y="0px"
	 width="50px" height="50px" viewBox="0 0 50 50" enable-background="new 0 0 50 50" xml:space="preserve">
<linearGradient id="SVGID_1_" gradientUnits="userSpaceOnUse" x1="16.967" y1="47.1855" x2="32.0804" y2="5.6616">
	<stop  offset="0" style="stop-color:#D99E29"/>
	<stop  offset="1" style="stop-color:#EEC061"/>
</linearGradient>
<path fill="url(#SVGID_1_)" d="M18.5,3.239c-4.133,0-7.5,3.37-7.5,7.5c0,1.159,0.273,2.272,0.75,3.25l1.781-0.875
	C13.184,12.402,13,11.594,13,10.739c0-3.05,2.447-5.5,5.5-5.5c3.046,0,5.5,2.451,5.5,5.5h2C26,6.608,22.628,3.239,18.5,3.239z
	 M37.188,7.614c-0.042,0.008-0.084,0.018-0.125,0.031C37.041,7.655,37.02,7.666,37,7.677c-2.535,0.636-5.436,2.155-7.281,5.594
	c-1.755-0.377-3.548-0.656-5.469-0.656c-5.687,0-10.097,1.771-13.563,4.469C8.92,18.46,7.529,20.35,6.656,22.677
	c-0.308-0.105-0.72-0.276-1.188-0.594C4.682,21.548,4,20.814,4,19.458c0-1.079,0.505-1.982,1.344-2.344
	c0.519-0.19,0.786-0.764,0.596-1.283c-0.152-0.416-0.56-0.683-1.003-0.655c-0.13,0.007-0.257,0.038-0.375,0.094
	C2.903,15.987,2,17.707,2,19.458c0,2.095,1.217,3.515,2.344,4.281c0.694,0.472,1.289,0.706,1.719,0.844
	c-0.339,1.482-0.48,3.121-0.406,4.875c0.186,4.455,3.202,7.718,5.469,9.531c0.01,0,0.021,0,0.031,0
	c0.204,0.161,0.264,0.253,0.281,0.281c0.017,0.028,0.061-0.035-0.031,0.25c-0.299,0.921-0.875,2.313-0.875,2.313
	c0,0.01,0,0.021,0,0.031c-0.532,1.395,0.171,2.97,1.563,3.5c0,0.01,0,0.021,0,0.031l3.219,1.188
	c1.393,0.532,3.002-0.169,3.531-1.563c0,0,0.4-1.126,0.75-2.063c0.054-0.142,0.095-0.177,0.125-0.219
	c0.041,0.002,0.044,0.017,0.125,0.031c0.635,0.116,2.051,0.531,4.406,0.531c2.403,0,3.8-0.24,4.438-0.281
	c0.124-0.008,0.177,0.002,0.219,0c0.014,0.028,0.014,0.049,0.031,0.094c0.005,0.014-0.005,0.017,0,0.031
	c0.322,0.956,0.708,1.849,0.719,1.875c0.006,0.015,0.025,0.016,0.031,0.031c0.543,1.367,2.089,2.056,3.469,1.531l3.219-1.188
	c0-0.01,0-0.021,0-0.031c1.394-0.529,2.096-2.105,1.563-3.5l-0.5-1.344c-0.026-0.055-0.058-0.107-0.094-0.156
	c0,0,0.031-0.004,0.031,0c0,0.004-0.137,0.051,0.188-0.125c2.43-1.322,4.29-3.355,5.469-5.813c0.11-0.231,0.202-0.395,0.281-0.469
	c0.08-0.074,0.125-0.125,0.438-0.125h1.625c1.438,0,2.625-1.187,2.625-2.625v-4.875c0-1.439-1.184-2.625-2.625-2.625H43.75
	c-0.253,0-0.32-0.021-0.344-0.031c-0.494-2.881-2.437-6.483-6.719-8.313c0.049-2.059,0.506-3.689,1.5-6.375
	c0.209-0.511-0.037-1.095-0.548-1.304C37.496,7.627,37.342,7.603,37.188,7.614z M35.625,10.427c-0.606,1.881-1.034,3.574-1,5.531
	c0.005,0.427,0.282,0.804,0.688,0.938c4.185,1.461,5.727,4.714,6.125,7.219c0.154,0.954,1.168,1.594,2.313,1.594h1.625
	c0.351,0,0.625,0.27,0.625,0.625v4.875c0,0.352-0.271,0.625-0.625,0.625H43.75c-0.736,0-1.4,0.274-1.813,0.656
	s-0.596,0.804-0.719,1.063c-1.014,2.114-2.539,3.788-4.594,4.906c-0.801,0.435-1.231,1.237-1.25,1.844
	c-0.016,0.518,0.16,0.798,0.219,0.906h-0.031l0.063,0.156l0.438,1.219c0.144,0.377-0.024,0.792-0.406,0.938l-3.219,1.219
	c-0.383,0.146-0.795-0.06-0.938-0.438c0-0.01,0-0.021,0-0.031c0,0-0.391-0.896-0.688-1.781c-0.149-0.435-0.36-0.917-0.844-1.219
	s-0.961-0.279-1.406-0.25c-0.89,0.057-2.039,0.281-4.313,0.281c-2.145,0-3.205-0.344-4.063-0.5c-0.429-0.078-0.957-0.148-1.5,0.156
	s-0.745,0.802-0.938,1.313c-0.346,0.924-0.781,2.031-0.781,2.031c-0.145,0.38-0.559,0.582-0.938,0.438l-3.219-1.219
	c-0.378-0.144-0.55-0.56-0.406-0.938c0.017-0.041,0.564-1.384,0.906-2.438c0.23-0.712,0.131-1.429-0.156-1.906
	s-0.677-0.73-0.781-0.813c-2.022-1.617-4.569-4.491-4.719-8.062c-0.212-5.065,1.526-8.597,4.25-10.719
	c3.158-2.458,7.061-4.031,12.344-4.031c2.016,0,3.921,0.248,5.719,0.688c0.471,0.118,0.958-0.119,1.156-0.563
	C32.246,12.267,33.906,11.175,35.625,10.427z M36.469,23.77c-1.059,0-1.906,0.851-1.906,1.906c0,1.057,0.847,1.938,1.906,1.938
	c1.056,0,1.907-0.882,1.906-1.938C38.375,24.622,37.525,23.77,36.469,23.77z"/>
</svg>
