<?xml version="1.0" encoding="utf-8"?>
<!-- Generator: Adobe Illustrator 19.0.1, SVG Export Plug-In . SVG Version: 6.00 Build 0)  -->
<svg version="1.1" id="Слой_1" xmlns="http://www.w3.org/2000/svg" xmlns:xlink="http://www.w3.org/1999/xlink" x="0px" y="0px"
	 width="150px" height="150px" viewBox="0 0 150 150" enable-background="new 0 0 150 150" xml:space="preserve">
<linearGradient id="SVGID_1_" gradientUnits="userSpaceOnUse" x1="49.3415" y1="145.4961" x2="100.6585" y2="4.5039">
	<stop  offset="0" style="stop-color:#D99E29"/>
	<stop  offset="1" style="stop-color:#EEC061"/>
</linearGradient>
<path fill="url(#SVGID_1_)" d="M75,3c39.701,0,72,32.299,72,72s-32.299,72-72,72S3,114.701,3,75S35.299,3,75,3 M75,0
	C33.579,0,0,33.579,0,75s33.579,75,75,75s75-33.579,75-75S116.421,0,75,0L75,0z"/>
<linearGradient id="SVGID_2_" gradientUnits="userSpaceOnUse" x1="63.8963" y1="107.2862" x2="82.8021" y2="55.343">
	<stop  offset="0" style="stop-color:#D99E29"/>
	<stop  offset="1" style="stop-color:#EEC061"/>
</linearGradient>
<path fill="url(#SVGID_2_)" d="M56,45.588v58.824l50-29.411L56,45.588z"/>
</svg>
