<?xml version="1.0" encoding="utf-8"?>
<!-- Generator: Adobe Illustrator 17.1.0, SVG Export Plug-In . SVG Version: 6.00 Build 0)  -->
<!DOCTYPE svg PUBLIC "-//W3C//DTD SVG 1.1//EN" "http://www.w3.org/Graphics/SVG/1.1/DTD/svg11.dtd">
<svg version="1.1" id="Layer_1" xmlns="http://www.w3.org/2000/svg" xmlns:xlink="http://www.w3.org/1999/xlink" x="0px" y="0px"
	 width="288px" height="288.1px" viewBox="0 0 288 288.1" enable-background="new 0 0 288 288.1" xml:space="preserve">
<g>
	<path d="M143.9,25.9c38.4,0,43,0.1,58.2,0.8c14,0.6,21.7,3,26.7,5c6.7,2.6,11.5,5.7,16.5,10.8c5,5,8.2,9.8,10.8,16.5
		c2,5.1,4.3,12.7,5,26.7c0.7,15.2,0.8,19.7,0.8,58.2s-0.1,43-0.8,58.2c-0.6,14-3,21.7-5,26.7c-2.6,6.7-5.7,11.5-10.8,16.5
		c-5,5-9.8,8.2-16.5,10.8c-5.1,2-12.7,4.3-26.7,5c-15.2,0.7-19.7,0.8-58.2,0.8s-43-0.1-58.2-0.8c-14-0.6-21.7-3-26.7-5
		c-6.7-2.6-11.5-5.7-16.5-10.8c-5-5-8.2-9.8-10.8-16.5c-2-5.1-4.3-12.7-5-26.7c-0.7-15.2-0.8-19.7-0.8-58.2s0.1-43,0.8-58.2
		c0.6-14,3-21.7,5-26.7c2.6-6.7,5.7-11.5,10.8-16.5c5-5,9.8-8.2,16.5-10.8c5.1-2,12.7-4.3,26.7-5C100.9,26.1,105.5,25.9,143.9,25.9
		 M143.9,0c-39.1,0-44,0.2-59.3,0.9S58.8,4,49.6,7.6c-9.5,3.7-17.5,8.6-25.5,16.6s-12.9,16-16.6,25.5c-3.6,9.2-6,19.6-6.7,34.9
		C0.2,99.9,0,104.8,0,143.9s0.2,44,0.9,59.3c0.7,15.4,3.1,25.8,6.7,35c3.7,9.5,8.6,17.5,16.6,25.5c8,8,16,12.9,25.5,16.6
		c9.2,3.6,19.6,6,34.9,6.7c15.4,0.7,20.3,0.9,59.3,0.9s44-0.2,59.3-0.9c15.3-0.7,25.8-3.1,34.9-6.7c9.5-3.7,17.5-8.6,25.5-16.6
		s12.9-16,16.6-25.5c3.6-9.2,6-19.6,6.7-34.9c0.7-15.4,0.9-20.3,0.9-59.3s-0.2-44-0.9-59.3c-0.7-15.3-3.1-25.8-6.7-34.9
		c-3.7-9.5-8.6-17.5-16.6-25.5s-16-12.9-25.5-16.6c-9.2-3.6-19.6-6-34.9-6.7C187.9,0.2,183,0,143.9,0L143.9,0z"/>
	<path d="M143.9,70C103.1,70,70,103.1,70,143.9s33.1,73.9,73.9,73.9s73.9-33.1,73.9-73.9S184.7,70,143.9,70z M143.9,191.9
		c-26.5,0-48-21.5-48-48s21.5-48,48-48s48,21.5,48,48S170.4,191.9,143.9,191.9z"/>
	<circle cx="220.7" cy="67.1" r="17.3"/>
</g>
</svg>
