<?xml version="1.0" encoding="utf-8"?>
<!-- Generator: Adobe Illustrator 17.1.0, SVG Export Plug-In . SVG Version: 6.00 Build 0)  -->
<!DOCTYPE svg PUBLIC "-//W3C//DTD SVG 1.1//EN" "http://www.w3.org/Graphics/SVG/1.1/DTD/svg11.dtd">
<svg version="1.1" id="Layer_1" xmlns="http://www.w3.org/2000/svg" xmlns:xlink="http://www.w3.org/1999/xlink" x="0px" y="0px"
	 width="312.3px" height="177.3px" viewBox="0 0 312.3 177.3" enable-background="new 0 0 312.3 177.3" xml:space="preserve">
<path d="M152.9,176.9h18.7c0,0,5.6-0.6,8.5-3.7c2.6-2.8,2.6-8.2,2.6-8.2s-0.4-25,11.2-28.7c11.5-3.6,26.2,24.2,41.7,34.9
	c11.8,8.1,20.7,6.3,20.7,6.3l41.7-0.6c0,0,21.8-1.3,11.5-18.5c-0.8-1.4-6-12.7-31-35.9c-26.1-24.3-22.6-20.3,8.8-62.3
	c19.2-25.6,26.8-41.1,24.4-47.8c-2.3-6.4-16.4-4.7-16.4-4.7L248.4,8c0,0-3.5-0.5-6.1,1.1c-2.5,1.5-4.1,5-4.1,5s-7.4,19.8-17.3,36.6
	c-20.9,35.5-29.2,37.4-32.7,35.1c-7.9-5.1-6-20.6-6-31.6c0-34.4,5.2-48.7-10.2-52.4c-5.1-1.2-8.9-2-21.9-2.2
	c-16.7-0.2-30.9,0.1-38.9,4c-5.3,2.6-9.5,8.4-6.9,8.8c3.1,0.4,10.1,1.9,13.8,7c4.8,6.5,4.6,21.2,4.6,21.2s2.8,40.5-6.5,45.5
	c-6.3,3.4-15-3.6-33.6-35.8c-9.5-16.5-16.7-34.7-16.7-34.7s-1.4-3.4-3.9-5.2c-3-2.2-7.2-2.9-7.2-2.9L10.2,7.8c0,0-6.7,0.2-9.2,3.1
	c-2.2,2.6-0.2,7.9-0.2,7.9s34.9,81.7,74.4,122.8C111.7,179.3,152.9,176.9,152.9,176.9L152.9,176.9z"/>
</svg>
