<?xml version="1.0" encoding="utf-8"?>
<!-- Generator: Adobe Illustrator 17.1.0, SVG Export Plug-In . SVG Version: 6.00 Build 0)  -->
<!DOCTYPE svg PUBLIC "-//W3C//DTD SVG 1.1//EN" "http://www.w3.org/Graphics/SVG/1.1/DTD/svg11.dtd">
<svg version="1.1" id="Layer_1" xmlns="http://www.w3.org/2000/svg" xmlns:xlink="http://www.w3.org/1999/xlink" x="0px" y="0px"
	 width="332.1px" height="270px" viewBox="0 0 332.1 270" enable-background="new 0 0 332.1 270" xml:space="preserve">
<path d="M332.1,32c-12.2,5.4-25.4,9.1-39.1,10.7c14.1-8.4,24.9-21.8,30-37.7c-13.2,7.8-27.8,13.5-43.3,16.5C267.3,8.3,249.6,0,230,0
	c-37.6,0-68.2,30.5-68.2,68.2c0,5.3,0.6,10.5,1.8,15.5C107,80.9,56.7,53.7,23.1,12.5c-5.9,10.1-9.2,21.8-9.2,34.3
	c0,23.6,12,44.5,30.3,56.7c-11.2-0.4-21.7-3.4-30.9-8.5c0,0.3,0,0.6,0,0.9c0,33,23.5,60.6,54.7,66.8c-5.7,1.6-11.7,2.4-18,2.4
	c-4.4,0-8.7-0.4-12.8-1.2c8.7,27.1,33.8,46.8,63.7,47.3c-23.3,18.3-52.7,29.2-84.6,29.2c-5.5,0-10.9-0.3-16.3-1
	C30.2,258.7,66,270,104.5,270c125.4,0,193.9-103.8,193.9-193.9c0-3-0.1-5.9-0.2-8.8C311.4,57.7,323,45.7,332.1,32z"/>
</svg>
