<?xml version="1.0" encoding="utf-8"?>
<!-- Generator: Adobe Illustrator 17.1.0, SVG Export Plug-In . SVG Version: 6.00 Build 0)  -->
<!DOCTYPE svg PUBLIC "-//W3C//DTD SVG 1.1//EN" "http://www.w3.org/Graphics/SVG/1.1/DTD/svg11.dtd">
<svg version="1.1" id="Layer_1" xmlns="http://www.w3.org/2000/svg" xmlns:xlink="http://www.w3.org/1999/xlink" x="0px" y="0px"
	 width="327.6px" height="230.3px" viewBox="0 0 327.6 230.3" enable-background="new 0 0 327.6 230.3" xml:space="preserve">
<g id="Lozenge">
	<g>
		<path d="M324.2,49.6c0,0-3.2-22.6-13-32.5C298.7,4.1,284.8,4,278.4,3.3C232.6,0,163.8,0,163.8,0h-0.1c0,0-68.8,0-114.6,3.3
			C42.7,4,28.7,4,16.3,17.1c-9.8,9.9-13,32.5-13,32.5S0,76.1,0,102.6v24.9c0,26.5,3.3,53,3.3,53s3.2,22.6,13,32.5
			c12.5,13,28.8,12.6,36.1,14c26.2,2.5,111.4,3.3,111.4,3.3s68.8-0.1,114.7-3.4c6.4-0.8,20.4-0.8,32.8-13.9c9.8-9.9,13-32.5,13-32.5
			s3.3-26.5,3.3-53v-24.9C327.5,76.1,324.2,49.6,324.2,49.6z M129.9,157.6V65.5l88.5,46.2L129.9,157.6z"/>
	</g>
</g>
</svg>
